<?xml version="1.0" encoding="UTF-8"?>
<svg xmlns="http://www.w3.org/2000/svg" width="460.3" height="412.7" viewBox="0 0 460.3 412.7">
  <defs>
    <style>
      .cls-1, .cls-2, .cls-3 {
        fill: #f1c761;
      }

      .cls-2 {
        font-size: 16px;
      }

      .cls-2, .cls-3 {
        font-family: Oswald-DemiBold, Oswald;
      }

      .cls-3 {
        font-size: 52px;
      }
    </style>
  </defs>
  <g id="Layer_1" data-name="Layer 1">
    <text class="cls-2" transform="translate(111.7 284)"><tspan x="0" y="0">EST.</tspan></text>
    <text class="cls-2" transform="translate(317.5 284)"><tspan x="0" y="0">2022</tspan></text>
    <text class="cls-3" transform="translate(113.1 183.2) rotate(-51.4)"><tspan x="0" y="0">T</tspan></text>
    <text class="cls-3" transform="translate(126.9 165.3) rotate(-40.9)"><tspan x="0" y="0">H</tspan></text>
    <text class="cls-3" transform="translate(150.5 145.4) rotate(-30.5)"><tspan x="0" y="0">E</tspan></text>
    <text class="cls-3" transform="translate(170.7 133.8) rotate(-23.4)"><tspan x="0" y="0"> </tspan></text>
    <text class="cls-3" transform="translate(182.6 128) rotate(-14.9)"><tspan x="0" y="0">O</tspan></text>
    <text class="cls-3" transform="translate(211.1 120) rotate(-2)"><tspan x="0" y="0">W</tspan></text>
    <text class="cls-3" transform="translate(247.6 119.4) rotate(9.4)"><tspan x="0" y="0">L</tspan></text>
    <text class="cls-3" transform="translate(270.1 123.4) rotate(16.4)"><tspan x="0" y="0"> </tspan></text>
    <text class="cls-3" transform="translate(283.1 126.7) rotate(24.6)"><tspan x="0" y="0">P</tspan></text>
    <text class="cls-3" transform="translate(308.7 138.3) rotate(35.9)"><tspan x="0" y="0">U</tspan></text>
    <text class="cls-3" transform="translate(332.8 155.7) rotate(47.5)"><tspan x="0" y="0">B</tspan></text>
  </g>
  <g id="Layer_6" data-name="Layer 6">
    <g id="Layer_3" data-name="Layer 3">
      <g>
        <path class="cls-1" d="M423.6,225c1.8,0,19.4-.5,29.6-17.8l-6-3.5c-8.3,14.1-22.5,14.4-23.5,14.4s0,0,0,0l-27.6-.3c4.7-6.3,13.1-15.2,21-15.2v-.2c4.5-.4,12.9-1.8,18.1-5.9l-4.3-5.5c-4.3,3.4-13.6,4.5-16.8,4.6h-94.6c-11,.4-16.8,6.3-17.5,7l-9.1,9.7c1.9-4.1,3-8.7,3-13.6,0-4.5-.9-8.8-2.6-12.7,4.5,.2,18.6-.6,24.7-19.5h-54.6c-17.7,.1-31.9,14.5-31.9,32.2s0,0,0,0h0c-.2-17.5-14.4-31.7-31.9-31.8h0s-54.6,0-54.6,0c6.2,18.9,20.2,19.8,24.7,19.5-1.7,3.9-2.6,8.2-2.6,12.7s.9,8.6,2.5,12.4l-8.4-9c-.7-.7-6.5-6.6-17.5-7H48.8c-3.3-.1-12.5-1.2-16.8-4.6l-4.3,5.5c5.2,4.1,13.6,5.4,18.1,5.9v.2c7.8,0,16.2,8.9,21,15.2l-27.6,.3c-.2,0-15.1,0-23.5-14.4l-6,3.5c10.2,17.4,27.8,17.8,29.6,17.8s0,0,.1,0l21.7-.3c-7.2,5.9-17,12.3-24.4,12.6-2.2-.4-6.8-1.7-8.4-4.2l-5.9,3.8c3.6,5.7,12.1,7.2,13.7,7.5h0s0,0,0,0c0,0,.1,0,.1,0h.2s56.1,0,56.1,0c-6.3,6.7-14.7,13.9-20.3,13.9h0c0,.1-2.2,.1-2.2,.1h-.5c-7.6,1-14.7-5.3-14.8-5.4l-2.7,3-2.7,3c.4,.4,9.7,8.7,20.9,7.5h96.2c0,0,7.1-.6,16,.6,6.8,14.8,20.1,26,36.3,29.8,.2,3.7,.2,13-4.8,18.1-2.8,2.9-6.9,3.9-12.4,3.3l-.9,7.9c1.3,.2,2.6,.2,3.8,.2,6.3,0,11.4-2,15.2-5.9,6.5-6.6,7.3-16.9,7.2-22.4,1.4,.1,2.8,.2,4.2,.2h0c1.4,0,2.7,0,4.1-.2-.1,5.6,.7,15.8,7.2,22.4,3.8,3.9,9,5.9,15.2,5.9s2.5,0,3.8-.2l-.9-7.9c-5.5,.6-9.6-.4-12.4-3.3-5-5-5-14.3-4.8-18,16.3-3.8,29.7-15,36.5-29.8,8.8-1.2,15.7-.6,15.8-.6h.2s96,0,96,0c11.2,1.3,20.5-7.1,20.9-7.5l-5.4-5.9c0,0-7.2,6.4-14.8,5.4h-.2s-1.7,0-1.7,0h0c-5.6-.1-14-7.3-20.3-14h56.3s0,0,.1,0c0,0,0,0,0,0h0c1.7-.3,10.1-1.7,13.7-7.5l-5.9-3.8c-1.6,2.5-6.2,3.8-8.4,4.2-7.4-.3-17.1-6.8-24.4-12.6l21.7,.3s0,0,.1,0Zm-36.1-7.4l-15.3-.2c6.3-7,15.3-14.9,21.2-14.9h0c0,0,7.2,0,7.2,0-6.9,5.7-11.8,13-13.1,15.1Zm-8.6,19.9h-9.6c-5.4,0-13.5-6.8-19.7-13.3l16,.2c2.6,3.1,7.6,8.7,13.3,13.1Zm-29.2,21h-10.5c-5.6-.1-14-7.3-20.3-14h16.8c2.4,2.9,7.7,9.1,14,14Zm-58.4-14h18.3c2.4,2.9,7.7,9.1,14,14h-12.5c-5.5,0-14.1-7.6-19.8-14Zm-6.8-13.4l4.2-4.5c2.3,2.6,6.4,7.1,11.1,10.9h-15.3v-6.4Zm57.6-28.6h10.5c-6.8,5.3-12.5,12-14.5,14.6l-16.7-.2c6.3-6.9,15-14.3,20.7-14.3h0Zm21,14.8l-15.9-.2c6.3-6.9,15.2-14.6,20.9-14.6h0c0,0,9.6,0,9.6,0-7,5.5-12.9,12.6-14.7,14.8Zm-49.3,6.4c2.4,3,7.7,8.9,13.8,13.7h-13.2c-5.5-.7-13.6-7.8-19.1-13.9l18.5,.2Zm9.4,.1l16.9,.2c2.5,3.1,7.6,8.8,13.5,13.4h-10.5c-5.5,0-13.8-7-20-13.6Zm-16.4-16.7c.2-.2,4.2-4.4,12.5-4.7h7.2c-6.5,5.1-12,11.5-14.2,14.3l-14.2-.2,8.8-9.4Zm-43.3-35.6s0,0,0,0c14.9,0,29.9,0,44.8,0,0,0-4.4,8.4-12.7,9.6h-11.9c3.7,4.5,5.9,10.2,5.9,16.5,0,14.4-11.7,26.1-26.1,26.1s-26.1-11.7-26.1-26.1,11.7-26.1,26.1-26.1Zm-96.8,10.1c-8.3-1.2-12.7-9.6-12.7-9.6,14.9,0,29.9,0,44.8,0s0,0,0,0c14.4,0,26.1,11.7,26.1,26.1s-11.7,26.1-26.1,26.1-26.1-11.7-26.1-26.1,2.2-12,5.9-16.5h-11.9Zm-15.2,76.8h-12.5c6.3-4.9,11.7-11.1,14-14h18.3c-5.8,6.4-14.3,13.9-19.8,14Zm-66.7-56h9.6c5.8,0,14.6,7.7,20.9,14.7l-15.9,.2c-1.8-2.3-7.7-9.4-14.7-14.8Zm50.2,35c6.1-4.8,11.4-10.8,13.8-13.7l18.5-.2c-5.5,6.1-13.6,13.2-19.1,13.9h-13.2Zm-10.5-20.4c-2-2.5-7.7-9.3-14.5-14.6h10.5c5.7,0,14.4,7.5,20.7,14.4l-16.7,.2Zm-27.4,7.3l16-.2c-6.2,6.6-14.3,13.3-19.7,13.3h0s-9.6,0-9.6,0c5.7-4.5,10.7-10,13.3-13.1Zm25.5-.3l16.9-.2c-6.2,6.6-14.5,13.6-20,13.6h0s-10.4,0-10.4,0c5.9-4.6,11-10.4,13.5-13.4Zm4.5,20.4h16.8c-6.3,6.7-14.7,13.9-20.3,13.9h0c0,.1-10.5,.1-10.5,.1,6.3-4.9,11.7-11.1,14-14Zm35.8-7c4.8-3.8,8.8-8.2,11.1-10.9l3.7,3.9v6.9h-14.8Zm-7-30.3l8.8,9.4-14.2,.2c-2.2-2.7-7.7-9.2-14.2-14.3h7.2c8.3,.3,12.3,4.5,12.5,4.7Zm-93.7-4.7h7.2c5.9,0,14.9,7.9,21.2,15l-15.3,.2c-1.3-2.1-6.3-9.5-13.2-15.1Zm9.7,22.2l15.9-.2c-6.2,6.5-14.1,13-19.4,13h0s-12.9,0-12.9,0c7.1-4.4,13.3-9.8,16.4-12.8Zm30.1,19.8h15.9c-6.3,6.7-14.7,13.9-20.3,13.9h0c0,.1-9.7,.1-9.7,.1,6.3-4.9,11.7-11.1,14-14Zm65.1,13.9c4.6-3.6,8.5-7.9,10.8-10.5,.2,3.7,.8,7.3,1.7,10.8-5.9-.5-10.5-.4-12.6-.3Zm25.3,10.7c12,3.4,20.1,9.7,24.1,18.6-10.1-3.3-18.7-10-24.1-18.6Zm39,21c-1.9,0-3.8-.1-5.7-.3-4.1-14.3-15.3-24.2-32.6-28.8-1.7-.5-3.4-.8-5.1-1.1-1.4-4.1-2.1-8.5-2.1-13v-2.4h0v-7h0v-9.1c4.1,1.8,8.6,2.9,13.3,2.9,7,0,13.5-2.3,18.8-6.1l13.1,14.9,13.6-15.1-.3-.5c5.3,3.9,11.9,6.3,19.1,6.3s9.3-1,13.3-2.9v19c0,4.5-.7,8.8-2.1,12.9-1.8,.3-3.7,.8-5.7,1.3-17.4,4.6-28.5,14.5-32.7,28.9-1.7,.2-3.4,.3-5.2,.3h0Zm14.3-2.2c4.1-9.2,12.4-15.6,24.8-19-5.6,8.9-14.3,15.7-24.8,19Zm37.1-29.3c1-3.7,1.6-7.5,1.8-11.4,2.2,2.6,6.4,7.2,11.4,11.2-1.3,0-6.4-.4-13.2,.2Zm92.2-.2h-9.7c-5.6-.1-14-7.3-20.3-14h15.9c2.4,2.9,7.7,9.1,14,14Zm32.5-21h-12.9c-5.3,0-13.3-6.6-19.4-13l15.9,.2c3.2,3,9.4,8.4,16.4,12.8Z"/>
        <circle class="cls-1" cx="199.4" cy="198.1" r="13.8"/>
        <circle class="cls-1" cx="263.1" cy="197.6" r="13.8"/>
      </g>
    </g>
  </g>
</svg>